# xmcd
#
# Track frame offsets:
#	150
#	12294
#	24035
#	37688
#	52678
#	66007
#	75436
#	87047
#	97677
#	111522
#	121970
#	137740
#
# Disc length: 2014 seconds
#
# Revision: 1
# Processed by: cddbd v1.5.1PL0 Copyright (c) Steve Scherf et al.
# Submitted via: audiograbber 1.82.02
#
DISCID=7907dc0c
DTITLE=Terry Gordon - That's My Style
DYEAR=1900
DGENRE=Country
TTITLE0=How I Love Them Old Songs
TTITLE1=A Pretty Country Song
TTITLE2=My Elusive Dreams
TTITLE3=Heartaches By The Number
TTITLE4=Fraulien
TTITLE5=It Takes A Drinkin' Man
TTITLE6=Sydney Town
TTITLE7=It Keeps Right On Hurtin'
TTITLE8=You've Never Been This Far Before
TTITLE9=The Mermaid
TTITLE10=Rainbow
TTITLE11=Dear One
EXTD=
EXTT0=
EXTT1=
EXTT2=
EXTT3=
EXTT4=
EXTT5=
EXTT6=
EXTT7=
EXTT8=
EXTT9=
EXTT10=
EXTT11=
PLAYORDER=
